# xmcd
#
# Track frame offsets: 
#        182
#        11747
#        24182
#        37370
#        64512
#        77907
#        89980
#        101635
#        112710
#        124550
#        140482
#        151827
#        166572
#        179705
#        198340
#        211780
#        225127
#        235347
#        249495
#        262170
#
# Disc length: 3654 seconds
#
# Revision: 5
# Processed by: cddbd v1.5.1PL2 Copyright (c) Steve Scherf et al.
# Submitted via: ExactAudioCopy v0.90b4
#
DISCID=050e4414
DTITLE=Various Artist - Rhythm and Blues Originals [CD2]
DYEAR=1989
DGENRE=Rhythm and Blues
TTITLE0=Percy Sledge - Sitting On The Dock Of The Bay
TTITLE1=Sam Cooke - You Send Me
TTITLE2=Lee Dorsey - Ride Your Pony
TTITLE3=James Brown - Sex Machine
TTITLE4=Percy Sledge - Take Time To Know Her
TTITLE5=Sam and Dave - Hold On I'm Comin'
TTITLE6=Lloyd Price - Personality
TTITLE7=The Drifters - Save The Last Dance For Me
TTITLE8=The Shirelles - Baby It's You
TTITLE9=Fontella Bass - The Soul Of A Man
TTITLE10=The Chrystals - The He Kisses Me
TTITLE11=Percy Sledge - Warm And Tender Love
TTITLE12=Lee Dorsey - Working In The Coalmine
TTITLE13=James Brown - I Feel Good
TTITLE14=The Drifters - On Broadway
TTITLE15=Sam and Dave - I Thank You
TTITLE16=The Chiffons - Sweet Talkin' Guy
TTITLE17=Wilson Pickett - It's Too Late
TTITLE18=The Dixie Cups - Chapel Of Love
TTITLE19=Bobby Hebb - Sunny
EXTD=
EXTT0=
EXTT1=
EXTT2=
EXTT3=
EXTT4=
EXTT5=
EXTT6=
EXTT7=
EXTT8=
EXTT9=
EXTT10=
EXTT11=
EXTT12=
EXTT13=
EXTT14=
EXTT15=
EXTT16=
EXTT17=
EXTT18=
EXTT19=
PLAYORDER=
